<?xml version="1.0" encoding="utf-8"?>
<!-- Generator: Adobe Illustrator 19.0.1, SVG Export Plug-In . SVG Version: 6.00 Build 0)  -->
<svg version="1.1" id="Layer_1" xmlns="http://www.w3.org/2000/svg" xmlns:xlink="http://www.w3.org/1999/xlink" x="0px" y="0px"
	 width="203.5px" height="111.3px" viewBox="0 0 203.5 111.3" style="enable-background:new 0 0 203.5 111.3;" xml:space="preserve"
	>
<style type="text/css">
	.st0{fill:#0FB7CE;}
	.st1{fill:#F58320;}
	.st2{fill:#FFFFFF;}
</style>
<g>
	<path class="st0" d="M95.2,23.9h6.9v45.4h19.7v6.4H95.2V23.9z"/>
	<path class="st0" d="M128.4,75.7V23.9h6.8v51.8H128.4z"/>
	<path class="st0" d="M144.4,75.7V41.9c0-6.1,1.5-10.6,4.5-13.6s7.6-4.4,13.8-4.4h7.4v6.4h-8.6c-3.3,0-5.9,0.9-7.6,2.7
		s-2.7,4.4-2.7,7.8v5.8h17.4V53h-17.4v22.7H144.4z"/>
	<path class="st0" d="M177.8,23.9h25.7v6.4h-18.9v15.2H202v6.4h-17.4v6.9c0,3.4,0.9,6,2.7,7.8s4.3,2.7,7.6,2.7h8.6v6.4H196
		c-6.2,0-10.8-1.5-13.8-4.4s-4.5-7.5-4.5-13.6V23.9z"/>
</g>
<g>
	<path class="st0" d="M0,110.8V94c0-1.6,0.1-3,0.3-4C0.4,89,0.8,88,1.3,87c0.6-0.9,1.2-1.7,2-2.4s1.7-1.2,2.7-1.5
		c1-0.3,2-0.5,3.2-0.5c1.6,0,3.2,0.4,4.6,1.2c1.4,0.8,2.5,1.9,3.3,3.3c0.8,1.4,1.2,2.9,1.2,4.5c0,1.5-0.3,2.9-1,4.3
		c-0.7,1.4-1.6,2.5-2.8,3.3c-1.2,0.8-2.5,1.3-3.8,1.3c-2.1,0-3.8-0.4-4.9-1.3l-0.7-4.4c0.5,0.7,1.2,1.2,2,1.6
		c0.8,0.4,1.7,0.6,2.5,0.6c0.9,0,1.7-0.2,2.5-0.7c0.8-0.5,1.3-1.1,1.8-2c0.4-0.8,0.6-1.7,0.6-2.7c0-1-0.2-1.9-0.7-2.7
		c-0.5-0.8-1.1-1.5-2-2c-0.8-0.5-1.8-0.7-2.7-0.7c-1.6,0-3,0.6-3.9,1.7c-1,1.1-1.5,2.6-1.5,4.6v18.5H0z"/>
	<path class="st0" d="M21.5,110.8V94c0-1.6,0.1-3,0.3-4c0.2-1.1,0.5-2.1,1.1-3c0.6-0.9,1.2-1.7,2-2.4s1.7-1.2,2.7-1.5
		c1-0.3,2-0.5,3.2-0.5c1.6,0,3.2,0.4,4.6,1.2c1.4,0.8,2.5,1.9,3.3,3.3c0.8,1.4,1.2,2.9,1.2,4.5c0,1.4-0.3,2.7-0.9,3.9
		c-0.6,1.2-1.4,2.3-2.5,3.1c-1.1,0.8-2.3,1.3-3.7,1.6l6.6,8.4l-2.9,2.3l-9.4-11.5l-0.7-4.5c0.5,0.7,1.2,1.2,2,1.6
		c0.8,0.4,1.5,0.6,2.1,0.6c1.8,0,3.2-0.5,4.1-1.5c1-1,1.5-2.3,1.5-4c0-1-0.2-1.9-0.7-2.7c-0.5-0.8-1.1-1.5-2-2
		c-0.8-0.5-1.8-0.7-2.7-0.7c-1.6,0-3,0.6-3.9,1.7c-1,1.1-1.5,2.6-1.5,4.6v18.5H21.5z"/>
	<path class="st0" d="M42.1,97c0-2.5,0.6-4.9,1.9-7.1c1.3-2.2,3-4,5.2-5.3s4.5-2,7-2c1.9,0,3.7,0.4,5.4,1.1c1.7,0.7,3.2,1.8,4.5,3.1
		c1.3,1.3,2.3,2.9,3,4.6s1.1,3.6,1.1,5.5c0,1.9-0.4,3.7-1.1,5.5c-0.7,1.7-1.7,3.3-3,4.6c-1.3,1.3-2.8,2.4-4.5,3.2
		c-1.7,0.8-3.5,1.1-5.5,1.1c-1.9,0-3.7-0.4-5.4-1.1c-1.7-0.7-3.2-1.8-4.5-3.1c-1.3-1.3-2.3-2.9-3.1-4.6
		C42.4,100.7,42.1,98.9,42.1,97z M45.9,96.9c0,1.4,0.3,2.7,0.8,4.1s1.3,2.5,2.2,3.5s2.1,1.8,3.3,2.4c1.3,0.6,2.6,0.9,4,0.9
		c1.4,0,2.8-0.3,4-0.9c1.3-0.6,2.4-1.4,3.3-2.4c0.9-1,1.7-2.2,2.2-3.5c0.5-1.3,0.8-2.7,0.8-4.1c0-1.4-0.3-2.7-0.8-4.1
		s-1.3-2.5-2.2-3.5c-0.9-1-2-1.8-3.3-2.4c-1.2-0.6-2.6-0.9-4-0.9c-1.9,0-3.6,0.5-5.2,1.5s-2.8,2.3-3.8,4
		C46.3,93.3,45.9,95.1,45.9,96.9z"/>
	<path class="st0" d="M79.3,110.8V86.5h-7.1v-3.4H90v3.4H83v24.3H79.3z"/>
	<path class="st0" d="M93,83.1h13.8v3.4H96.6v8.1h9.3v3.4h-9.3v3.7c0,1.8,0.5,3.2,1.4,4.2c0.9,1,2.3,1.5,4.1,1.5h4.6v3.4h-4
		c-3.3,0-5.8-0.8-7.4-2.4c-1.6-1.6-2.4-4-2.4-7.3V83.1z"/>
	<path class="st0" d="M109.8,97.1c0-2.6,0.6-5,1.9-7.2c1.3-2.2,3-4,5.2-5.3c2.2-1.3,4.5-2,7-2c1.5,0,2.9,0.2,4.2,0.6
		c1.3,0.4,2.5,1,3.6,1.8c1.1,0.8,2,1.7,2.9,2.7l-2.9,2.2c-2.1-2.6-4.7-3.9-7.8-3.9c-1.9,0-3.6,0.5-5.2,1.5c-1.6,1-2.8,2.4-3.8,4.1
		c-0.9,1.7-1.4,3.5-1.4,5.5c0,1.8,0.5,3.5,1.4,5.2c0.9,1.7,2.2,3,3.8,4s3.3,1.5,5.1,1.5c1.8,0,3.4-0.5,5-1.4
		c1.5-0.9,2.8-2.2,3.7-3.9l3,2.2c-0.9,1.3-1.9,2.5-3.1,3.4c-1.2,1-2.5,1.7-4,2.3c-1.5,0.5-3,0.8-4.6,0.8c-2.5,0-4.8-0.6-7-1.9
		c-2.2-1.3-3.9-3-5.2-5.2C110.5,102,109.8,99.7,109.8,97.1z"/>
	<path class="st0" d="M144.1,110.8V86.5H137v-3.4h17.9v3.4h-7.1v24.3H144.1z"/>
	<path class="st0" d="M157.8,83.1h13.8v3.4h-10.1v8.1h9.3v3.4h-9.3v3.7c0,1.8,0.5,3.2,1.4,4.2c0.9,1,2.3,1.5,4.1,1.5h4.6v3.4h-4
		c-3.3,0-5.8-0.8-7.4-2.4c-1.6-1.6-2.4-4-2.4-7.3V83.1z"/>
	<path class="st0" d="M188.8,82.6c1.9,0,3.7,0.4,5.5,1.1c1.7,0.8,3.2,1.8,4.5,3.1s2.3,2.9,3,4.6c0.7,1.7,1.1,3.5,1.1,5.4
		c0,2.6-0.6,5-1.9,7.2c-1.3,2.2-3,4-5.1,5.3c-2.2,1.3-4.5,1.9-7.1,1.9c-3.1,0-5.9-0.8-8.3-2.5l-0.9-5.4c0.6,0.8,1.3,1.5,2,2.1
		s1.7,1.1,2.9,1.6c1.2,0.4,2.6,0.7,4.3,0.7c1.4,0,2.8-0.3,4-0.9c1.3-0.6,2.4-1.4,3.3-2.4c0.9-1,1.7-2.2,2.2-3.5
		c0.5-1.3,0.8-2.7,0.8-4c0-1.4-0.3-2.8-0.8-4.1s-1.3-2.5-2.2-3.5c-0.9-1-2-1.8-3.3-2.4c-1.3-0.6-2.6-0.9-4-0.9
		c-1.1,0-2.3,0.2-3.5,0.6c-1.2,0.4-2.3,1.1-3.4,2c-1.1,0.9-1.9,2.1-2.5,3.4c-0.6,1.4-1,3-1,4.8v13.9h-3.7V96.9
		c0-2.3,0.4-4.4,1.3-6.2c0.9-1.8,2-3.3,3.5-4.5c1.4-1.2,3-2.1,4.6-2.7C185.7,82.9,187.3,82.6,188.8,82.6z"/>
</g>
<g>
	<g>
		<path class="st1" d="M43.5,2.2L32.6,9.2V0L21.7,0l0,16.3L0,30.4l3.3,4.4L43.5,8.7l40.2,26.1l3.3-4.4L43.5,2.2z M43.5,2.2"/>
		<path class="st1" d="M43.5,16.3L10.9,38.1l0,38l27.2,0V59.8l10.9,0l0,16.3l27.2,0l0-38L43.5,16.3z M43.5,16.3"/>
		<rect x="36.5" y="58.2" class="st1" width="13.6" height="17.9"/>
	</g>
</g>
<path class="st2" d="M29.3,40.3L33,58.9l0,15.5c0,0.8,0.7,1.5,1.5,1.5s1.5-0.7,1.5-1.5l0-15.7c0-0.1,0-0.2-0.1-0.3l-3.5-17.6
	l5.8-2.9l5.8,2.9l-3.5,17.5l0,0l0,0c0,0,0,0,0,0.1c0,0.1,0,0.2,0,0.2l0,15.7c0,0.8,0.7,1.5,1.5,1.5s1.5-0.7,1.5-1.5l0-14.2h1
	L46,74.6c0.1,0.8,0.8,1.4,1.6,1.3c0.8-0.1,1.4-0.8,1.3-1.6l-1.7-15.7c-0.1-0.8-0.8-1.3-1.5-1.3h-1.9l3.3-16.5l2.4-2.4l2.4,2.4
	l3.3,16.5l-1.9,0c-0.8,0-1.4,0.6-1.5,1.3l-1.7,15.7c-0.1,0.8,0.5,1.5,1.3,1.6c0.1,0,0.1,0,0.2,0c0.8,0,1.4-0.6,1.5-1.3l1.6-14.4H57
	c0.5,0,0.9-0.2,1.2-0.6c0.3-0.4,0.4-0.8,0.3-1.2l-3.7-18.7c-0.1-0.3-0.2-0.6-0.4-0.8l-2-2c1.5-0.9,2.5-2.6,2.5-4.4
	c0-2.9-2.4-5.2-5.2-5.2c-2.9,0-5.2,2.4-5.2,5.2c0,1.8,1,3.5,2.5,4.4l-1.2,1.3L42,36.4c1.1-1,1.6-2.3,1.6-3.8c0-2.9-2.4-5.2-5.2-5.2
	c-2.9,0-5.2,2.4-5.2,5.2c0,1.5,0.6,2.9,1.6,3.8l-4.6,2.3C29.5,39,29.2,39.6,29.3,40.3z M49.5,30.3c1.2,0,2.2,1.1,2.2,2.2
	c0,1.2-1.1,2.2-2.2,2.2c-1.2,0-2.2-1.1-2.2-2.2C47.2,31.3,48.2,30.3,49.5,30.3z M38.2,30.3c1.2,0,2.2,1.1,2.2,2.2
	c0,1.2-1.1,2.2-2.2,2.2l0,0c-1.2,0-2.2-1.1-2.2-2.2S37,30.3,38.2,30.3z M59.2,51.2c0,1.5,0.6,2.9,1.6,3.8l-0.9,0.5
	c-0.5,0.2-0.8,0.8-0.8,1.3l0,9.3c0,0.1,0,0.2,0.1,0.3l1.7,8.2c0.2,0.8,1,1.3,1.8,1.2c0.8-0.2,1.3-1,1.2-1.8l-1.6-8l0-8.3l2.2-1.2
	l2.2,1.2V66l-1.6,8.1c-0.2,0.8,0.4,1.6,1.2,1.8c0.1,0,0.2,0.1,0.3,0.1c0.7,0,1.3-0.5,1.5-1.2l1.6-8.2c0-0.1,0.1-0.2,0.1-0.3l0-9.4
	c0-0.6-0.4-1.1-0.8-1.3l-0.9-0.5c1.1-1,1.6-2.3,1.6-3.9c0-2.9-2.4-5.2-5.2-5.2C61.5,46,59.2,48.3,59.2,51.2z M66.7,51.2
	c0,1.2-1.1,2.2-2.2,2.2l0,0c-1.2,0-2.2-1.1-2.2-2.2c0-1.2,1.1-2.2,2.2-2.2C65.6,49,66.7,50,66.7,51.2z M19.8,74.7
	c0.1,0.8,0.9,1.4,1.7,1.2c0.8-0.1,1.4-0.9,1.2-1.7L21,62.3l0-8.3l2.2-1.2l2.2,1.2l0,8.3l-1.7,11.9c-0.1,0.8,0.5,1.5,1.2,1.7
	c0.1,0,0.1,0,0.2,0c0.8,0,1.4-0.5,1.5-1.2l1.7-12c0-0.1,0-0.1,0-0.2l0-9.3c0-0.6-0.4-1.1-0.8-1.3l-0.9-0.5c1.1-1,1.6-2.3,1.6-3.8
	c0-2.9-2.4-5.2-5.2-5.2s-5.2,2.4-5.2,5.2c0,1.5,0.6,2.9,1.6,3.8l-0.9,0.5c-0.5,0.2-0.8,0.8-0.8,1.3l0,9.3c0,0.1,0,0.1,0,0.2
	L19.8,74.7z M23.2,45.3c1.2,0,2.2,1.1,2.2,2.2c0,1.2-1.1,2.2-2.2,2.2l0,0c-1.2,0-2.2-1.1-2.2-2.2C21,46.3,22.1,45.3,23.2,45.3z"/>
</svg>
